<?xml version="1.0" standalone="no"?>
<!DOCTYPE svg PUBLIC "-//W3C//DTD SVG 20010904//EN"
 "http://www.w3.org/TR/2001/REC-SVG-20010904/DTD/svg10.dtd">
<svg version="1.0" xmlns="http://www.w3.org/2000/svg"
 width="700.000000pt" height="700.000000pt" viewBox="0 0 700.000000 700.000000"
 preserveAspectRatio="xMidYMid meet">
<metadata>
Created by potrace 1.11, written by Peter Selinger 2001-2013
</metadata>
<g transform="translate(0.000000,700.000000) scale(0.100000,-0.100000)"
fill="#000000" stroke="none">
<path d="M3080 6974 c-614 -78 -1191 -308 -1666 -665 -150 -113 -209 -163
-357 -309 -593 -578 -935 -1284 -1039 -2140 -17 -137 -17 -583 0 -720 91 -749
365 -1383 833 -1925 84 -98 299 -311 394 -392 461 -388 1034 -657 1635 -767
97 -18 320 -46 362 -46 l28 0 -2 702 -3 702 -105 17 c-446 72 -848 282 -1165
610 -311 321 -499 700 -571 1154 -24 151 -24 459 0 610 72 454 260 833 571
1154 317 328 719 538 1165 610 l105 17 3 702 2 702 -42 -1 c-24 -1 -90 -7
-148 -15z"/>
<path d="M3732 6288 l3 -702 105 -17 c820 -133 1494 -752 1694 -1554 46 -185
60 -306 60 -515 0 -138 -5 -227 -18 -305 -72 -454 -260 -833 -571 -1154 -317
-328 -719 -538 -1165 -610 l-105 -17 -3 -702 -2 -702 28 0 c42 0 265 28 362
46 601 110 1174 379 1635 767 95 81 310 294 394 392 418 484 695 1073 800
1700 38 223 46 327 46 585 0 258 -8 362 -46 585 -105 627 -382 1216 -800 1700
-84 98 -299 311 -394 392 -461 388 -1034 657 -1635 767 -97 18 -320 46 -362
46 l-28 0 2 -702z"/>
<path d="M3145 5094 c-521 -111 -976 -505 -1171 -1016 -159 -417 -134 -911 65
-1307 159 -313 419 -573 732 -732 133 -66 324 -129 447 -145 l52 -7 0 474 0
474 -88 44 c-68 35 -106 63 -173 130 -72 72 -94 101 -132 181 -102 209 -102
411 0 620 38 80 60 109 132 181 67 67 105 95 173 130 l88 44 0 473 0 472 -27
-1 c-16 0 -59 -7 -98 -15z"/>
<path d="M3730 4639 l0 -474 88 -44 c68 -35 106 -63 173 -130 72 -72 94 -101
132 -181 50 -103 77 -211 77 -310 0 -99 -27 -207 -77 -310 -38 -80 -60 -109
-132 -181 -67 -67 -105 -95 -173 -130 l-88 -44 0 -474 0 -474 53 7 c170 22
393 107 575 218 200 122 407 329 530 530 324 530 324 1185 0 1716 -122 200
-329 407 -530 530 -181 111 -405 195 -575 218 l-53 7 0 -474z"/>
</g>
</svg>
