<?xml version="1.0" standalone="no"?>
<!DOCTYPE svg PUBLIC "-//W3C//DTD SVG 20010904//EN"
 "http://www.w3.org/TR/2001/REC-SVG-20010904/DTD/svg10.dtd">
<svg version="1.0" xmlns="http://www.w3.org/2000/svg"
 width="700.000000pt" height="700.000000pt" viewBox="0 0 700.000000 700.000000"
 preserveAspectRatio="xMidYMid meet">
<metadata>
Created by potrace 1.11, written by Peter Selinger 2001-2013
</metadata>
<g transform="translate(0.000000,700.000000) scale(0.100000,-0.100000)"
fill="#000000" stroke="none">
<path d="M3285 6993 c-625 -49 -1130 -211 -1636 -525 -221 -136 -388 -268
-592 -468 -593 -578 -935 -1284 -1039 -2140 -17 -137 -17 -583 0 -720 69 -569
227 -1028 514 -1491 145 -236 311 -440 525 -649 204 -200 371 -332 592 -468
511 -317 1015 -477 1654 -527 l77 -6 0 760 0 760 -57 6 c-498 58 -889 242
-1223 575 -258 259 -433 564 -519 910 -47 186 -56 268 -56 490 0 222 9 304 56
490 122 487 442 926 868 1190 266 165 534 256 874 295 l57 6 0 760 0 759 -27
-2 c-16 -1 -46 -3 -68 -5z"/>
<path d="M3620 6241 l0 -760 58 -6 c497 -58 888 -242 1222 -575 258 -259 433
-564 519 -910 47 -186 56 -268 56 -490 0 -222 -9 -304 -56 -490 -122 -487
-442 -926 -868 -1190 -266 -165 -534 -256 -873 -295 l-58 -6 0 -760 0 -760 78
6 c638 50 1142 210 1653 527 221 136 388 268 592 468 593 578 935 1284 1039
2140 17 137 17 583 0 720 -69 569 -227 1028 -514 1491 -145 236 -311 440 -525
649 -204 200 -371 332 -592 468 -511 317 -1015 477 -1653 527 l-78 6 0 -760z"/>
<path d="M3208 5225 c-736 -124 -1311 -706 -1435 -1450 -22 -135 -22 -415 0
-550 115 -688 606 -1232 1278 -1415 90 -24 238 -50 292 -50 l37 0 0 525 0 524
-37 10 c-21 6 -43 11 -49 11 -7 0 -54 21 -105 47 -77 38 -110 62 -180 132 -72
72 -94 102 -132 181 -50 103 -77 211 -77 310 0 99 27 207 77 310 38 79 60 109
132 181 70 70 103 94 180 132 51 26 98 47 105 47 6 0 28 5 49 11 l37 10 0 524
0 525 -47 -1 c-27 -1 -82 -7 -125 -14z"/>
<path d="M3620 4715 l0 -524 38 -10 c20 -6 42 -11 48 -11 7 0 54 -21 105 -47
77 -38 110 -62 180 -132 72 -72 94 -102 132 -181 50 -103 77 -211 77 -310 0
-99 -27 -207 -77 -310 -38 -79 -60 -109 -132 -181 -70 -70 -103 -94 -180 -132
-51 -26 -98 -47 -105 -47 -6 0 -28 -5 -48 -11 l-38 -10 0 -524 0 -525 38 0
c53 0 201 26 291 50 672 183 1163 727 1278 1415 22 135 22 415 0 550 -115 688
-606 1232 -1278 1415 -90 24 -238 50 -291 50 l-38 0 0 -525z"/>
</g>
</svg>
