<svg viewBox="0 0 30 30"><path d="M14.33,1.17a12.5,12.5,0,1,0,12.5,12.5A12.5,12.5,0,0,0,14.33,1.17Zm9.11,19.17h-4a1.08,1.08,0,0,0-.45.11l-2.06-3.22a1.07,1.07,0,0,0,.35-0.5L18.51,13a1.05,1.05,0,0,0,0-.19l4.12-1.14a1.08,1.08,0,0,0,.27.36l2.86,2.37a11.42,11.42,0,0,1-2.14,6A0.93,0.93,0,0,0,23.44,20.34ZM9,20.5H5.1a11.42,11.42,0,0,1-2.21-5.9l0,0L6,12a1.08,1.08,0,0,0,.31-0.44l3.76,1.12a1.06,1.06,0,0,0,0,.29l1.21,3.73a1.06,1.06,0,0,0,.29.44l-2.3,3.38A1.09,1.09,0,0,0,9,20.5ZM24,7.41l-1.34,3.38a1.09,1.09,0,0,0-.07.32l-4.08,1.13a1.06,1.06,0,0,0-.34-0.44L14.95,9.48a1.07,1.07,0,0,0-.32-0.16V5.39A1.09,1.09,0,0,0,15,5.23l3.22-2.34,0,0A11.41,11.41,0,0,1,24,7.41ZM7,4.8a11.48,11.48,0,0,1,3.4-1.93l0,0,3.22,2.34A1.08,1.08,0,0,0,14,5.4V9.32a1.06,1.06,0,0,0-.37.16L10.5,11.79a1.06,1.06,0,0,0-.3.36L6.36,11a1.06,1.06,0,0,0-.05-0.22L4.87,7.17A11.56,11.56,0,0,1,7,4.8Zm7.31,20.37A11.55,11.55,0,0,1,12,24.94c-0.29-.06-0.58-0.15-0.86-0.23L10,21.25a1.07,1.07,0,0,0-.24-0.39l2.32-3.42a1.06,1.06,0,0,0,.23,0h3.93l0.14,0,2.15,3.36a1.1,1.1,0,0,0-.14.28l-1.2,3.7-0.56.14A11.55,11.55,0,0,1,14.33,25.17Z"/><rect fill="#ed1c24" x="16.12" y="20.51" width="12.31" height="3.67" transform="translate(22.33 -9.2) rotate(45)"/><rect fill="#ed1c24" x="16.12" y="20.51" width="12.31" height="3.67" transform="translate(53.83 22.4) rotate(135)"/></svg>